<!-- https://danmarshall.github.io/google-font-to-svg-path/ -->
<svg width="610.694" height="93.018" viewBox="0 0 610.694 93.018" xmlns="http://www.w3.org/2000/svg"><g id="svgGroup" stroke-linecap="round" fill-rule="evenodd" font-size="9pt" stroke="2d3c5b" stroke-width="0.25mm" fill="#E7AB3c" style="stroke:2d3c5b;stroke-width:0.25mm;fill:2d3c5b"><path d="M 55.322 19.043 L 55.322 27.002 A 25.461 25.461 0 0 1 54.636 33.176 Q 52.606 41.277 44.58 43.335 A 20.345 20.345 0 0 1 42.822 43.701 L 56.006 72.021 L 44.922 72.021 L 31.934 44.043 L 10.01 44.043 L 10.01 72.021 L 0 72.021 L 0 2.002 L 38.33 2.002 A 24.396 24.396 0 0 1 45.055 2.847 Q 52.595 5.013 54.598 12.732 A 25.175 25.175 0 0 1 55.322 19.043 Z M 132.031 62.402 L 132.031 49.316 A 9.319 9.319 0 0 1 132.611 46.019 A 8.893 8.893 0 0 1 132.788 45.581 A 10.064 10.064 0 0 1 134.839 42.529 A 9.48 9.48 0 0 1 137.891 40.454 A 9.285 9.285 0 0 1 141.602 39.697 L 166.406 39.697 L 166.406 29.639 L 135.01 29.639 L 135.01 20.02 L 166.406 20.02 Q 168.408 20.02 170.166 20.776 A 9.681 9.681 0 0 1 173.218 22.827 A 9.681 9.681 0 0 1 175.269 25.879 Q 176.025 27.637 176.025 29.639 L 176.025 72.021 L 166.406 72.021 L 166.406 63.232 Q 166.26 65.039 165.43 66.65 Q 164.6 68.262 163.306 69.458 Q 162.012 70.654 160.352 71.338 Q 158.691 72.021 156.836 72.021 L 141.602 72.021 A 9.285 9.285 0 0 1 137.891 71.265 A 9.681 9.681 0 0 1 134.839 69.214 A 9.681 9.681 0 0 1 132.788 66.162 Q 132.031 64.404 132.031 62.402 Z M 249.023 12.012 L 249.023 2.002 L 305.029 2.002 L 305.029 12.012 L 282.031 12.012 L 282.031 72.021 L 272.021 72.021 L 272.021 12.012 L 249.023 12.012 Z M 555.664 29.639 L 555.664 50.928 L 521.24 50.928 L 521.24 62.402 L 555.664 62.402 L 555.664 72.021 L 521.24 72.021 A 9.285 9.285 0 0 1 517.529 71.265 A 9.681 9.681 0 0 1 514.478 69.214 A 9.681 9.681 0 0 1 512.427 66.162 Q 511.67 64.404 511.67 62.402 L 511.67 29.639 Q 511.67 27.637 512.427 25.879 A 9.681 9.681 0 0 1 514.478 22.827 A 9.681 9.681 0 0 1 517.529 20.776 A 9.285 9.285 0 0 1 521.24 20.02 L 546.045 20.02 Q 548.047 20.02 549.805 20.776 A 9.681 9.681 0 0 1 552.856 22.827 A 9.681 9.681 0 0 1 554.907 25.879 Q 555.664 27.637 555.664 29.639 Z M 433.643 29.639 L 433.643 62.402 Q 433.643 64.404 432.886 66.162 A 9.681 9.681 0 0 1 430.835 69.214 A 9.681 9.681 0 0 1 427.783 71.265 Q 426.025 72.021 424.023 72.021 L 397.217 72.021 L 397.217 93.018 L 387.646 93.018 L 387.646 20.02 L 397.217 20.02 L 397.217 28.809 A 8.849 8.849 0 0 1 398.193 25.366 A 10.442 10.442 0 0 1 400.293 22.583 Q 401.563 21.387 403.247 20.703 Q 404.932 20.02 406.836 20.02 L 424.023 20.02 Q 426.025 20.02 427.783 20.776 A 9.681 9.681 0 0 1 430.835 22.827 A 9.681 9.681 0 0 1 432.886 25.879 Q 433.643 27.637 433.643 29.639 Z M 495.654 29.639 L 495.654 62.402 Q 495.654 64.404 494.897 66.162 A 9.681 9.681 0 0 1 492.847 69.214 A 9.681 9.681 0 0 1 489.795 71.265 Q 488.037 72.021 486.035 72.021 L 459.229 72.021 L 459.229 93.018 L 449.658 93.018 L 449.658 20.02 L 459.229 20.02 L 459.229 28.809 A 8.849 8.849 0 0 1 460.205 25.366 A 10.442 10.442 0 0 1 462.305 22.583 Q 463.574 21.387 465.259 20.703 Q 466.943 20.02 468.848 20.02 L 486.035 20.02 Q 488.037 20.02 489.795 20.776 A 9.681 9.681 0 0 1 492.847 22.827 A 9.681 9.681 0 0 1 494.897 25.879 Q 495.654 27.637 495.654 29.639 Z M 192.041 62.402 L 192.041 29.639 Q 192.041 27.637 192.798 25.879 A 9.681 9.681 0 0 1 194.849 22.827 A 9.681 9.681 0 0 1 197.9 20.776 A 9.285 9.285 0 0 1 201.611 20.02 L 228.418 20.02 L 228.418 0 L 238.037 0 L 238.037 72.021 L 228.418 72.021 L 228.418 63.232 Q 228.271 65.039 227.441 66.65 Q 226.611 68.262 225.317 69.458 Q 224.023 70.654 222.363 71.338 Q 220.703 72.021 218.848 72.021 L 201.611 72.021 A 9.285 9.285 0 0 1 197.9 71.265 A 9.681 9.681 0 0 1 194.849 69.214 A 9.681 9.681 0 0 1 192.798 66.162 Q 192.041 64.404 192.041 62.402 Z M 339.453 29.639 L 319.629 29.639 L 319.629 72.021 L 310.059 72.021 L 310.059 20.02 L 319.629 20.02 L 319.629 29.199 A 9.62 9.62 0 0 1 320.508 25.61 Q 321.289 23.926 322.583 22.681 A 9.568 9.568 0 0 1 325.586 20.728 Q 327.295 20.02 329.248 20.02 L 339.453 20.02 A 9.319 9.319 0 0 1 342.751 20.599 A 8.893 8.893 0 0 1 343.188 20.776 A 10.064 10.064 0 0 1 346.24 22.827 A 9.48 9.48 0 0 1 348.315 25.879 Q 349.072 27.637 349.072 29.639 L 349.072 38.428 L 339.453 38.428 L 339.453 29.639 Z M 601.074 29.639 L 581.25 29.639 L 581.25 72.021 L 571.68 72.021 L 571.68 20.02 L 581.25 20.02 L 581.25 29.199 A 9.62 9.62 0 0 1 582.129 25.61 Q 582.91 23.926 584.204 22.681 A 9.568 9.568 0 0 1 587.207 20.728 Q 588.916 20.02 590.869 20.02 L 601.074 20.02 A 9.319 9.319 0 0 1 604.372 20.599 A 8.893 8.893 0 0 1 604.81 20.776 A 10.064 10.064 0 0 1 607.861 22.827 A 9.48 9.48 0 0 1 609.937 25.879 Q 610.693 27.637 610.693 29.639 L 610.693 38.428 L 601.074 38.428 L 601.074 29.639 Z M 116.016 29.639 L 116.016 62.402 Q 116.016 64.404 115.259 66.162 A 9.681 9.681 0 0 1 113.208 69.214 A 9.758 9.758 0 0 1 110.181 71.265 A 9.201 9.201 0 0 1 106.57 72.021 A 10.524 10.524 0 0 1 106.445 72.021 L 80.615 72.021 A 9.285 9.285 0 0 1 76.904 71.265 A 9.681 9.681 0 0 1 73.853 69.214 A 9.681 9.681 0 0 1 71.802 66.162 Q 71.045 64.404 71.045 62.402 L 71.045 29.639 Q 71.045 27.637 71.802 25.879 A 9.681 9.681 0 0 1 73.853 22.827 A 9.681 9.681 0 0 1 76.904 20.776 A 9.285 9.285 0 0 1 80.615 20.02 L 106.445 20.02 A 9.319 9.319 0 0 1 109.743 20.599 A 8.893 8.893 0 0 1 110.181 20.776 A 9.758 9.758 0 0 1 113.208 22.827 A 9.681 9.681 0 0 1 115.259 25.879 Q 116.016 27.637 116.016 29.639 Z M 361.523 20.02 L 371.143 20.02 L 371.143 72.021 L 361.523 72.021 L 361.523 20.02 Z M 201.611 29.639 L 201.611 62.402 L 228.418 62.402 L 228.418 29.639 L 201.611 29.639 Z M 397.217 62.402 L 424.023 62.402 L 424.023 29.639 L 397.217 29.639 L 397.217 62.402 Z M 459.229 62.402 L 486.035 62.402 L 486.035 29.639 L 459.229 29.639 L 459.229 62.402 Z M 106.445 29.639 L 80.615 29.639 L 80.615 62.402 L 106.445 62.402 L 106.445 29.639 Z M 10.01 12.012 L 10.01 34.033 L 37.793 34.033 A 14.395 14.395 0 0 0 39.841 33.898 Q 42.24 33.552 43.508 32.321 A 4.378 4.378 0 0 0 43.555 32.275 A 5.159 5.159 0 0 0 44.693 30.476 Q 45.303 28.915 45.312 26.585 A 18.101 18.101 0 0 0 45.312 26.514 L 45.313 19.531 A 14.395 14.395 0 0 0 45.177 17.483 Q 44.831 15.084 43.6 13.816 A 4.378 4.378 0 0 0 43.555 13.77 A 5.159 5.159 0 0 0 41.756 12.631 Q 40.194 12.021 37.865 12.012 A 18.101 18.101 0 0 0 37.793 12.012 L 10.01 12.012 Z M 141.602 49.316 L 141.602 62.402 L 166.406 62.402 L 166.406 49.316 L 141.602 49.316 Z M 546.045 29.639 L 521.24 29.639 L 521.24 41.309 L 546.045 41.309 L 546.045 29.639 Z M 361.035 10.01 L 361.035 0 L 371.631 0 L 371.631 10.01 L 361.035 10.01 Z" vector-effect="non-scaling-stroke"/></g></svg>