<svg width="122.021" height="70.022" viewBox="0 0 122.021 70.022" xmlns="http://www.w3.org/2000/svg"><g id="svgGroup" stroke-linecap="round" fill-rule="evenodd" font-size="9pt" stroke="#000" stroke-width="0.25mm" fill="#2d3c5b" style="stroke:#000;stroke-width:0.25mm;fill:#2d3c5b"><path d="M 55.322 17.044 L 55.322 25.003 A 25.461 25.461 0 0 1 54.636 31.177 Q 52.606 39.278 44.58 41.335 A 20.345 20.345 0 0 1 42.822 41.702 L 56.006 70.022 L 44.922 70.022 L 31.934 42.044 L 10.01 42.044 L 10.01 70.022 L 0 70.022 L 0 0.003 L 38.33 0.003 A 24.396 24.396 0 0 1 45.055 0.847 Q 52.595 3.013 54.598 10.733 A 25.175 25.175 0 0 1 55.322 17.044 Z M 66.016 10.012 L 66.016 0.003 L 122.021 0.003 L 122.021 10.012 L 99.023 10.012 L 99.023 70.022 L 89.014 70.022 L 89.014 10.012 L 66.016 10.012 Z M 10.01 10.012 L 10.01 32.034 L 37.793 32.034 A 14.395 14.395 0 0 0 39.841 31.899 Q 42.24 31.553 43.508 30.322 A 4.378 4.378 0 0 0 43.555 30.276 A 5.159 5.159 0 0 0 44.693 28.477 Q 45.303 26.916 45.312 24.586 A 18.101 18.101 0 0 0 45.312 24.514 L 45.313 17.532 A 14.395 14.395 0 0 0 45.177 15.484 Q 44.831 13.085 43.6 11.816 A 4.378 4.378 0 0 0 43.555 11.77 A 5.159 5.159 0 0 0 41.756 10.632 Q 40.194 10.022 37.865 10.012 A 18.101 18.101 0 0 0 37.793 10.012 L 10.01 10.012 Z" vector-effect="non-scaling-stroke"/></g></svg>